<?xml version="1.0" encoding="UTF-8"?>
<svg version="1.1" xmlns="http://www.w3.org/2000/svg" width="224" height="225">
<path d="M0 0 C73.92 0 147.84 0 224 0 C224 74.25 224 148.5 224 225 C150.08 225 76.16 225 0 225 C0 150.75 0 76.5 0 0 Z " fill="#014E2B" transform="translate(0,0)"/>
<path d="M0 0 C22.77 0 45.54 0 69 0 C69 51.48 69 102.96 69 156 C28.33045356 156 28.33045356 156 13.97265625 143.19140625 C-1.29768661 127.11911978 -0.43118007 105.95918716 -0.29296875 85.3515625 C-0.28736396 82.88292704 -0.28309804 80.41428821 -0.28010559 77.94564819 C-0.26872642 71.49144048 -0.23931961 65.03743971 -0.20599365 58.58331299 C-0.16970521 50.81626797 -0.15609862 43.04914911 -0.13863373 35.28204346 C-0.10967766 23.52121897 -0.05214169 11.76084736 0 0 Z " fill="#FDFDFD" transform="translate(34,34)"/>
<path d="M0 0 C3.89184452 -0.10059445 7.78316254 -0.17225841 11.67602539 -0.21972656 C13.63389776 -0.24919327 15.59141099 -0.30007758 17.54882812 -0.3515625 C32.37924349 -0.5025082 45.25410384 3.52305157 56.25 13.6875 C67.75313713 25.88779696 69.4562639 39.97602685 69.29296875 55.9453125 C69.28736276 57.56769414 69.28309741 59.19008091 69.28010559 60.81246948 C69.26873564 65.05068362 69.23933764 69.28858175 69.20599365 73.52667236 C69.17512197 77.86409228 69.16156398 82.20156402 69.14648438 86.5390625 C69.11445908 95.02618553 69.06335973 103.51305328 69 112 C64.75013521 112.08842548 60.50051254 112.14086428 56.25 112.1875 C55.06277344 112.21263672 53.87554687 112.23777344 52.65234375 112.26367188 C36.76560705 112.39389103 24.88537551 108.33678304 13.29296875 97.4453125 C3.8922362 87.41999976 -0.13905877 73.70114856 -0.11352539 60.16845703 C-0.11367142 59.51409164 -0.11381744 58.85972626 -0.1139679 58.18553162 C-0.11327647 56.04292374 -0.10552052 53.90040501 -0.09765625 51.7578125 C-0.09578933 50.26423185 -0.09436672 48.77065058 -0.09336853 47.27706909 C-0.08956494 43.36114793 -0.07975324 39.44526432 -0.06866455 35.52935791 C-0.05840388 31.52738961 -0.05386096 27.52541519 -0.04882812 23.5234375 C-0.0381289 15.6822745 -0.0210786 7.84114193 0 0 Z " fill="#00DC38" transform="translate(120,78)"/>
<path d="M0 0 C25.41 0 50.82 0 77 0 C77 25.41 77 50.82 77 77 C76.67 77 76.34 77 76 77 C75.91548584 76.44763672 75.83097168 75.89527344 75.74389648 75.32617188 C72.93672319 57.57498306 68.52262889 43.08577881 57 29 C56.47019531 28.29617187 55.94039062 27.59234375 55.39453125 26.8671875 C47.97525896 17.52440017 36.98815806 11.23828954 26 7 C25.05640625 6.63132812 24.1128125 6.26265625 23.140625 5.8828125 C15.55272064 3.13269902 8.00307887 1.89975443 0 1 C0 0.67 0 0.34 0 0 Z " fill="#FCFDFC" transform="translate(147,0)"/>
<path d="M0 0 C0.33 0 0.66 0 1 0 C1.07476562 0.95777344 1.14953125 1.91554687 1.2265625 2.90234375 C3.26915885 24.88257796 12.33636198 45.54703467 29.3984375 60.05859375 C43.4555733 70.54867857 58.83072361 75.47087306 76 78 C76 78.33 76 78.66 76 79 C50.92 79 25.84 79 0 79 C0 52.93 0 26.86 0 0 Z " fill="#FCFDFC" transform="translate(0,146)"/>
</svg>
